<?xml version="1.0" encoding="UTF-8"?>
<svg xmlns="http://www.w3.org/2000/svg" width="444" height="292" viewBox="0 0 444 292" fill="none">
  <path d="M48.031 281.134L50.8383 284.305C75.3051 310.783 112.566 324.318 150.581 316.949C150.803 316.905 151.663 316.733 151.87 316.691C189.796 308.879 218.989 282.058 231.395 248.209L232.773 244.154L252.39 186.466L177.86 161.363L144.814 258.574C143.349 262.892 137.747 264.012 134.721 260.592L66.84 183.558L7.68986 235.386L48.0014 281.139L48.031 281.134Z" stroke="#F7A5FB" stroke-width="0.87" stroke-miterlimit="10"></path>
  <path d="M428.602 158.393L424.924 156.292C393.246 139.081 353.612 138.238 319.982 157.432C319.786 157.546 319.027 157.985 318.844 158.091C285.44 177.677 266.414 212.456 265.544 248.497L265.542 252.779L265.504 313.712L344.148 313.532L344.202 210.858C344.201 206.298 349.146 203.438 353.111 205.704L442.147 256.838L481.504 188.751L428.628 158.378L428.602 158.393Z" fill="#F7A5FB" stroke="#F7A5FB" stroke-width="0.87" stroke-miterlimit="10"></path>
  <path d="M187.157 130.338L190.525 132.906C219.658 154.143 258.835 160.204 294.702 145.61C294.911 145.524 295.721 145.189 295.917 145.108C331.611 130.097 355.056 98.1291 360.67 62.5176L361.237 58.2729L369.307 -2.1227L291.326 -12.3127L277.736 89.4586C277.136 93.978 271.857 96.1619 268.226 93.3931L186.708 30.9672L138.718 93.2711L187.129 130.35L187.157 130.338Z" stroke="#F7A5FB" stroke-width="0.87" stroke-miterlimit="10"></path>
  <path d="M98.4366 -147.306L94.5053 -145.729C61.3405 -131.594 36.0604 -101.057 30.2135 -62.7791C30.1806 -62.5548 30.0532 -61.6874 30.0225 -61.478C24.6227 -23.1345 40.0607 13.3795 67.7646 36.4488L71.1194 39.1104L118.848 76.9882L167.558 15.2449L87.1265 -48.5746C83.553 -51.4057 84.3827 -57.0581 88.6212 -58.7579L184 -96.7713L155.088 -169.908L98.441 -147.336L98.4366 -147.306Z" stroke="#F7A5FB" stroke-width="0.87" stroke-miterlimit="10"></path>
  <path d="M411.262 -5.68325L409.273 -1.9439C393.026 30.2389 393.379 69.8808 413.58 102.916C413.699 103.109 414.161 103.854 414.272 104.034C434.857 136.831 470.195 154.799 506.245 154.581L510.526 154.454L571.432 152.653L568.879 74.0501L466.249 77.0946C461.693 77.2331 458.684 72.3767 460.829 68.3452L509.253 -22.193L440.01 -59.4781L411.246 -5.70897L411.262 -5.68325Z" stroke="#F7A5FB" stroke-width="0.87" stroke-miterlimit="10"></path>
</svg>
