<?xml version="1.0" encoding="UTF-8"?>
<svg xmlns="http://www.w3.org/2000/svg" width="20" height="20" viewBox="0 0 20 20" fill="none">
  <g clip-path="url(#clip0_1556_46126)">
    <path fill-rule="evenodd" clip-rule="evenodd" d="M9.35781 0.0188508C7.94197 0.139071 6.65571 0.570271 5.50047 1.31199C3.44323 2.63283 2.06039 4.80245 1.73897 7.21365C1.60769 8.19845 1.64755 9.02785 1.86975 9.93467C2.48269 12.4362 4.63223 15.4061 7.95781 18.346C8.65349 18.961 9.12627 19.3495 9.72281 19.7962L9.99781 20.0021L10.2728 19.7962C11.7818 18.6665 13.5225 17.0511 14.7995 15.5954C16.9074 13.1925 18.0838 10.9695 18.2966 8.98721C18.3677 8.32525 18.3213 7.44577 18.1768 6.71365C17.9481 5.55525 17.4391 4.39261 16.7402 3.43229C15.9341 2.32455 14.8295 1.39951 13.6278 0.825731C12.4508 0.263711 11.2438 -0.00780915 9.95781 0.000170846C9.73231 0.00157085 9.46231 0.00997084 9.35781 0.0188508ZM9.65519 1.67901C7.29429 1.79465 5.14869 3.17809 4.08153 5.27277C3.60063 6.21671 3.37605 7.08393 3.34493 8.11721C3.33245 8.53121 3.34799 8.77655 3.40953 9.13721C3.62391 10.3937 4.40999 11.9403 5.62565 13.4972C6.64653 14.8047 8.01901 16.2069 9.60781 17.5657C9.99205 17.8943 9.98549 17.89 10.0428 17.852C10.0676 17.8356 10.2228 17.7068 10.3878 17.5656C12.1845 16.0289 13.6811 14.4606 14.7416 13.0033C15.5246 11.9273 16.1329 10.7775 16.4167 9.83721C16.6033 9.21875 16.6685 8.74211 16.6507 8.12721C16.6206 7.09005 16.3954 6.21759 15.9141 5.27277C15.2469 3.96315 14.1086 2.87715 12.7669 2.27009C12.005 1.92537 11.1774 1.71933 10.4254 1.68707C10.2837 1.68101 10.1228 1.67325 10.0678 1.66987C10.0128 1.66647 9.82713 1.67059 9.65519 1.67901ZM7.49781 8.11721V10.6172H9.99781H12.4978V8.11721V5.61721H9.99781H7.49781V8.11721ZM9.15781 8.12721V8.95721H9.99781H10.8378V8.12721V7.29721H9.99781H9.15781V8.12721Z" fill="#2017CE"></path>
  </g>
  <defs>
    <clipPath id="clip0_1556_46126">
      <rect width="20" height="20" fill="white"></rect>
    </clipPath>
  </defs>
</svg>
