<?xml version="1.0" encoding="UTF-8"?>
<svg xmlns="http://www.w3.org/2000/svg" width="421" height="54" viewBox="0 0 421 54" fill="none">
  <mask id="mask0_1510_45919" style="mask-type:alpha" maskUnits="userSpaceOnUse" x="0" y="0" width="421" height="83">
    <path d="M0 0H421V83H0V0Z" fill="#DEE2E6"></path>
  </mask>
  <g mask="url(#mask0_1510_45919)">
    <path d="M82.7254 58.3786L82.7254 56.3222C82.3052 38.8158 73.087 21.9442 56.895 12.4579C56.8056 12.4042 56.439 12.1897 56.3406 12.136C40.0323 2.8553 20.8093 3.30233 5.43979 11.6979L3.6337 12.735L-22 27.5323L-2.92896 60.5602L40.2648 35.6239C42.1871 34.5152 44.5833 35.9011 44.5833 38.1184L44.5833 88L82.7254 88L82.7254 58.3697L82.7254 58.3786Z" fill="#E9ECEF"></path>
    <path d="M280.937 33.6207L280.937 35.6771C281.358 53.1835 290.576 70.055 306.768 79.5414C306.857 79.595 307.224 79.8096 307.322 79.8633C323.631 89.144 342.854 88.6969 358.223 80.3014L360.029 79.2642L385.663 64.467L366.592 31.4391L323.398 56.3754C321.476 57.4841 319.08 56.0982 319.08 53.8809L319.08 3.99928L280.937 3.99928L280.937 33.6296L280.937 33.6207Z" fill="#E9ECEF"></path>
    <path d="M280.311 58.3786L280.311 56.3222C279.891 38.8158 270.673 21.9442 254.481 12.4579C254.391 12.4042 254.025 12.1897 253.927 12.136C237.618 2.8553 218.395 3.30233 203.026 11.6979L201.22 12.735L175.586 27.5323L194.657 60.5602L237.851 35.6239C239.773 34.5152 242.169 35.9011 242.169 38.1184L242.169 88L280.311 88L280.311 58.3697L280.311 58.3786Z" fill="#E9ECEF"></path>
    <path d="M477.725 58.3786L477.725 56.3222C477.305 38.8158 468.087 21.9442 451.895 12.4579C451.806 12.4042 451.439 12.1897 451.341 12.136C435.032 2.8553 415.809 3.30233 400.44 11.6979L398.634 12.735L373 27.5323L392.071 60.5602L435.265 35.6239C437.187 34.5152 439.583 35.9011 439.583 38.1184L439.583 88L477.725 88L477.725 58.3697L477.725 58.3786Z" fill="#E9ECEF"></path>
    <path d="M83.3516 33.6207L83.3516 35.6771C83.7718 53.1835 92.9899 70.055 109.182 79.5414C109.271 79.595 109.638 79.8096 109.736 79.8633C126.045 89.144 145.268 88.6969 160.637 80.3014L162.443 79.2642L188.077 64.467L169.006 31.4391L125.812 56.3754C123.89 57.4841 121.494 56.0982 121.494 53.8809L121.494 3.99928L83.3516 3.99928L83.3516 33.6296L83.3516 33.6207Z" fill="#E9ECEF"></path>
  </g>
</svg>
