<?xml version="1.0" encoding="UTF-8"?>
<svg xmlns="http://www.w3.org/2000/svg" width="153" height="135" viewBox="0 0 153 135" fill="none">
  <path id="Vector" d="M0.531283 29.9672L0.5287 -27.934L74.6943 -27.9153L74.7015 69.9158C74.7015 69.9159 74.7015 69.9161 74.7015 69.9162C74.6979 74.6675 79.8355 77.6541 83.9587 75.2735L168.654 26.3747L205.753 90.6324L152.106 121.606C121.965 138.078 84.2611 138.951 52.2723 120.735L52.266 120.731L52.2596 120.728C52.0909 120.638 51.3695 120.229 51.1887 120.121L51.1842 120.118C19.4084 101.51 1.32059 68.4099 0.502774 34.0738C0.502732 34.0719 0.502683 34.0699 0.502641 34.0681L0.497518 30.1523L0.531289 30.084L0.531283 29.9672Z" stroke="#F7003B"></path>
</svg>
