<?xml version="1.0" encoding="UTF-8"?>
<svg xmlns="http://www.w3.org/2000/svg" width="356" height="717" viewBox="0 0 356 717" fill="none">
  <mask id="mask0_1038_116643" style="mask-type:luminance" maskUnits="userSpaceOnUse" x="-69" y="0" width="425" height="717">
    <path d="M355.364 716.5L-68.5 716.5L-68.5 0.5L355.364 0.500017L355.364 716.5Z" fill="white" stroke="white"></path>
  </mask>
  <g mask="url(#mask0_1038_116643)">
    <mask id="mask1_1038_116643" style="mask-type:luminance" maskUnits="userSpaceOnUse" x="-163" y="-318" width="759" height="827">
      <path d="M595.231 507.926L-162.368 507.926L-162.367 -317.433L595.231 -317.433L595.231 507.926Z" fill="white" stroke="white"></path>
    </mask>
    <g mask="url(#mask1_1038_116643)">
      <path d="M431.526 -130.279L431.53 -130.277C462.459 -113.196 480.054 -82.8295 480.859 -51.3328L480.859 -47.6339L480.859 -47.6177L480.859 5.48438L408.637 5.48438L408.637 -84.2801C408.637 -88.7203 403.588 -91.3971 399.608 -89.2334L399.608 -89.2333L317.105 -44.3362L281.018 -103.249L329.764 -129.773L329.765 -129.774L333.222 -131.645C333.223 -131.646 333.225 -131.647 333.226 -131.648C362.59 -146.766 399.316 -147.569 430.471 -130.857L430.479 -130.853C430.658 -130.76 431.355 -130.376 431.526 -130.279Z" fill="#F7003B" stroke="#F7003B"></path>
      <path d="M481.359 -47.6177L481.359 -51.3389C480.552 -83.0181 462.856 -113.548 431.772 -130.715C431.6 -130.812 430.896 -131.2 430.708 -131.297C399.4 -148.091 362.498 -147.282 332.993 -132.09L329.526 -130.213L280.316 -103.436L316.927 -43.67L399.847 -88.7941C403.537 -90.8004 408.137 -88.2926 408.137 -84.2801L408.137 5.98438L481.359 5.98438L481.359 -47.6339L481.359 -47.6177Z" stroke="#F7003B" stroke-width="0.7" stroke-miterlimit="10"></path>
      <path d="M48.9988 86.6011L48.9988 90.3224C49.8055 122.001 67.5016 152.532 98.5857 169.698C98.7573 169.795 99.4611 170.183 99.6499 170.281C130.957 187.075 167.86 186.266 197.365 171.073L200.832 169.197L250.041 142.42L213.43 82.6534L130.511 127.777C126.821 129.784 122.221 127.276 122.221 123.263L122.221 32.999L48.9988 32.999L48.9988 86.6172L48.9988 86.6011Z" fill="#F7003B" stroke="#F7003B" stroke-width="0.7" stroke-miterlimit="10"></path>
      <path d="M329.621 282.925L329.621 279.204C328.815 247.525 311.118 216.995 280.034 199.828C279.863 199.731 279.159 199.343 278.97 199.246C247.663 182.452 210.76 183.261 181.255 198.453L177.788 200.33L128.579 227.107L165.19 286.873L248.109 241.749C251.8 239.743 256.4 242.25 256.4 246.263L256.4 336.527L329.621 336.527L329.621 282.909L329.621 282.925Z" stroke="#F7003B" stroke-width="0.7" stroke-miterlimit="10"></path>
      <path d="M-48.4615 238.121L-48.4615 241.842C-47.6548 273.521 -29.9587 304.051 1.12539 321.218C1.29703 321.315 2.00075 321.703 2.18955 321.8C33.4968 338.594 70.3994 337.785 99.9044 322.593L103.372 320.716L152.581 293.939L115.97 234.173L33.0505 279.297C29.3602 281.303 24.7603 278.795 24.7603 274.783L24.7603 184.518L-48.4615 184.518L-48.4615 238.137L-48.4615 238.121Z" stroke="#F7003B" stroke-width="0.7" stroke-miterlimit="10"></path>
      <path d="M253.773 448.195L253.773 444.473C252.967 412.794 235.271 382.264 204.187 365.098C204.015 365.001 203.311 364.612 203.122 364.515C171.815 347.721 134.913 348.53 105.408 363.722L101.94 365.599L52.7311 392.376L89.342 452.143L172.261 407.018C175.952 405.012 180.552 407.52 180.552 411.532L180.552 501.797L253.773 501.797L253.773 448.179L253.773 448.195Z" stroke="#F7003B" stroke-width="0.7" stroke-miterlimit="10"></path>
      <path d="M-124.334 403.394L-124.334 407.115C-123.528 438.794 -105.832 469.325 -74.7475 486.491C-74.5758 486.588 -73.8721 486.976 -73.6833 487.074C-42.3761 503.868 -5.47341 503.059 24.0316 487.866L27.4987 485.99L76.708 459.213L40.0971 399.446L-42.8224 444.571C-46.5126 446.577 -51.1126 444.069 -51.1126 440.056L-51.1126 349.792L-124.334 349.792L-124.334 403.41L-124.334 403.394Z" stroke="#F7003B" stroke-width="0.7" stroke-miterlimit="10"></path>
      <path d="M26.1965 117.648L26.1965 113.927C25.3898 82.2476 7.69366 51.7172 -23.3904 34.5509C-23.5621 34.4538 -24.2658 34.0656 -24.4546 33.9685C-55.7618 17.1743 -92.6645 17.9833 -122.169 33.1757L-125.637 35.0525L-174.846 61.8292L-138.235 121.596L-55.3155 76.4716C-51.6253 74.4654 -47.0253 76.9731 -47.0253 80.9856L-47.0253 171.25L26.1965 171.25L26.1965 117.632L26.1965 117.648Z" stroke="#F7003B" stroke-width="0.7" stroke-miterlimit="10"></path>
      <path d="M26.1965 117.648L26.1965 113.927C25.3898 82.2476 7.69366 51.7172 -23.3904 34.5509C-23.5621 34.4538 -24.2658 34.0656 -24.4546 33.9685C-55.7618 17.1743 -92.6645 17.9833 -122.169 33.1757L-125.637 35.0525L-174.846 61.8292L-138.235 121.596L-55.3155 76.4716C-51.6253 74.4654 -47.0253 76.9731 -47.0253 80.9856L-47.0253 171.25L26.1965 171.25L26.1965 117.632L26.1965 117.648Z" stroke="#F7003B" stroke-width="0.7" stroke-miterlimit="10"></path>
    </g>
    <mask id="mask2_1038_116643" style="mask-type:luminance" maskUnits="userSpaceOnUse" x="-163" y="508" width="759" height="827">
      <path d="M595.231 1334.28L-162.368 1334.28L-162.367 508.919L595.231 508.919L595.231 1334.28Z" fill="white" stroke="white"></path>
    </mask>
    <g mask="url(#mask2_1038_116643)">
      <path d="M177.909 613.46L177.909 609.739C177.102 578.06 159.406 547.53 128.322 530.363C128.15 530.266 127.447 529.878 127.258 529.781C95.9506 512.987 59.048 513.796 29.543 528.988L26.0759 530.865L-23.1334 557.642L13.4774 617.408L96.3969 572.284C100.087 570.278 104.687 572.786 104.687 576.798L104.687 667.063L177.909 667.063L177.909 613.444L177.909 613.46Z" stroke="#F7003B" stroke-width="0.7" stroke-miterlimit="10"></path>
      <path d="M-200.193 568.656L-200.193 572.377C-199.387 604.056 -181.691 634.586 -150.606 651.753C-150.435 651.85 -149.731 652.238 -149.542 652.335C-118.235 669.129 -81.3324 668.32 -51.8274 653.128L-48.3603 651.251L0.849006 624.474L-35.7619 564.708L-118.681 609.832C-122.372 611.838 -126.972 609.331 -126.972 605.318L-126.972 515.054L-200.193 515.054L-200.193 568.672L-200.193 568.656Z" stroke="#F7003B" stroke-width="0.7" stroke-miterlimit="10"></path>
      <path d="M-150.36 651.318L-150.365 651.315C-181.294 634.234 -198.889 603.867 -199.693 572.371L-199.693 568.672L-199.693 568.656L-199.693 515.554L-127.472 515.554L-127.472 605.318C-127.472 609.758 -122.422 612.435 -118.443 610.271L-118.442 610.271L-35.9401 565.374L0.147707 624.287L-48.5983 650.811L-48.5993 650.812L-52.0563 652.683C-52.0578 652.684 -52.0593 652.685 -52.0608 652.686C-81.4245 667.804 -118.151 668.607 -149.306 651.895L-149.306 651.895L-149.314 651.891C-149.493 651.798 -150.189 651.414 -150.36 651.318Z" fill="#F7003B" stroke="#F7003B"></path>
      <path d="M-200.193 568.656L-200.193 572.377C-199.387 604.056 -181.691 634.586 -150.606 651.753C-150.435 651.85 -149.731 652.238 -149.542 652.335C-118.235 669.129 -81.3324 668.32 -51.8274 653.128L-48.3603 651.251L0.849006 624.474L-35.7619 564.708L-118.681 609.832C-122.372 611.838 -126.972 609.331 -126.972 605.318L-126.972 515.054L-200.193 515.054L-200.193 568.672L-200.193 568.656Z" stroke="#F7003B" stroke-width="0.7" stroke-miterlimit="10"></path>
    </g>
  </g>
</svg>
