<?xml version="1.0" encoding="UTF-8"?>
<svg xmlns="http://www.w3.org/2000/svg" width="20" height="20" viewBox="0 0 20 20" fill="none">
  <g id="Horizontal-Slider-2--Streamline-Sharp" clip-path="url(#clip0_529_25878)">
    <g id="horizontal-slider-2--adjustment-adjust-controls-fader-horizontal-settings-slider">
      <g id="Vector 2003">
        <path d="M0.832031 10H6.2487" stroke="#010A1C" stroke-width="1.5"></path>
        <path d="M0.832031 10H6.2487" stroke="black" stroke-opacity="0.2" stroke-width="1.5"></path>
      </g>
      <g id="Vector 2004">
        <path d="M13.75 10H19.1667" stroke="#010A1C" stroke-width="1.5"></path>
        <path d="M13.75 10H19.1667" stroke="black" stroke-opacity="0.2" stroke-width="1.5"></path>
      </g>
      <g id="Ellipse 611">
        <path d="M8.33203 10.0026C8.33203 10.4446 8.50763 10.8686 8.82019 11.1811C9.13275 11.4937 9.55667 11.6693 9.9987 11.6693C10.4407 11.6693 10.8646 11.4937 11.1772 11.1811C11.4898 10.8686 11.6654 10.4446 11.6654 10.0026C11.6654 9.56058 11.4898 9.13665 11.1772 8.82409C10.8646 8.51153 10.4407 8.33594 9.9987 8.33594C9.55667 8.33594 9.13275 8.51153 8.82019 8.82409C8.50763 9.13665 8.33203 9.56058 8.33203 10.0026Z" stroke="#010A1C" stroke-width="1.5"></path>
        <path d="M8.33203 10.0026C8.33203 10.4446 8.50763 10.8686 8.82019 11.1811C9.13275 11.4937 9.55667 11.6693 9.9987 11.6693C10.4407 11.6693 10.8646 11.4937 11.1772 11.1811C11.4898 10.8686 11.6654 10.4446 11.6654 10.0026C11.6654 9.56058 11.4898 9.13665 11.1772 8.82409C10.8646 8.51153 10.4407 8.33594 9.9987 8.33594C9.55667 8.33594 9.13275 8.51153 8.82019 8.82409C8.50763 9.13665 8.33203 9.56058 8.33203 10.0026Z" stroke="black" stroke-opacity="0.2" stroke-width="1.5"></path>
      </g>
      <g id="Vector 2006">
        <path d="M7.08203 3.33594H19.1654" stroke="#010A1C" stroke-width="1.5"></path>
        <path d="M7.08203 3.33594H19.1654" stroke="black" stroke-opacity="0.2" stroke-width="1.5"></path>
      </g>
      <g id="Ellipse 612">
        <path d="M1.66406 3.33464C1.66406 3.77666 1.83966 4.20059 2.15222 4.51315C2.46478 4.82571 2.8887 5.0013 3.33073 5.0013C3.77276 5.0013 4.19668 4.82571 4.50924 4.51315C4.8218 4.20059 4.9974 3.77666 4.9974 3.33464C4.9974 2.89261 4.8218 2.46868 4.50924 2.15612C4.19668 1.84356 3.77276 1.66797 3.33073 1.66797C2.8887 1.66797 2.46478 1.84356 2.15222 2.15612C1.83966 2.46868 1.66406 2.89261 1.66406 3.33464Z" stroke="#010A1C" stroke-width="1.5"></path>
        <path d="M1.66406 3.33464C1.66406 3.77666 1.83966 4.20059 2.15222 4.51315C2.46478 4.82571 2.8887 5.0013 3.33073 5.0013C3.77276 5.0013 4.19668 4.82571 4.50924 4.51315C4.8218 4.20059 4.9974 3.77666 4.9974 3.33464C4.9974 2.89261 4.8218 2.46868 4.50924 2.15612C4.19668 1.84356 3.77276 1.66797 3.33073 1.66797C2.8887 1.66797 2.46478 1.84356 2.15222 2.15612C1.83966 2.46868 1.66406 2.89261 1.66406 3.33464Z" stroke="black" stroke-opacity="0.2" stroke-width="1.5"></path>
      </g>
      <g id="Vector 2007">
        <path d="M0.832031 16.668H12.9154" stroke="#010A1C" stroke-width="1.5"></path>
        <path d="M0.832031 16.668H12.9154" stroke="black" stroke-opacity="0.2" stroke-width="1.5"></path>
      </g>
      <g id="Ellipse 613">
        <path d="M15 16.6667C15 17.1087 15.1756 17.5326 15.4882 17.8452C15.8007 18.1577 16.2246 18.3333 16.6667 18.3333C17.1087 18.3333 17.5326 18.1577 17.8452 17.8452C18.1577 17.5326 18.3333 17.1087 18.3333 16.6667C18.3333 16.2246 18.1577 15.8007 17.8452 15.4882C17.5326 15.1756 17.1087 15 16.6667 15C16.2246 15 15.8007 15.1756 15.4882 15.4882C15.1756 15.8007 15 16.2246 15 16.6667Z" stroke="#010A1C" stroke-width="1.5"></path>
        <path d="M15 16.6667C15 17.1087 15.1756 17.5326 15.4882 17.8452C15.8007 18.1577 16.2246 18.3333 16.6667 18.3333C17.1087 18.3333 17.5326 18.1577 17.8452 17.8452C18.1577 17.5326 18.3333 17.1087 18.3333 16.6667C18.3333 16.2246 18.1577 15.8007 17.8452 15.4882C17.5326 15.1756 17.1087 15 16.6667 15C16.2246 15 15.8007 15.1756 15.4882 15.4882C15.1756 15.8007 15 16.2246 15 16.6667Z" stroke="black" stroke-opacity="0.2" stroke-width="1.5"></path>
      </g>
    </g>
  </g>
  <defs>
    <clipPath id="clip0_529_25878">
      <rect width="20" height="20" fill="white"></rect>
    </clipPath>
  </defs>
</svg>
