<?xml version="1.0" encoding="UTF-8"?>
<svg xmlns="http://www.w3.org/2000/svg" width="20" height="20" viewBox="0 0 20 20" fill="none">
  <g id="Frame" clip-path="url(#clip0_529_24933)">
    <path id="Vector" fill-rule="evenodd" clip-rule="evenodd" d="M4.16035 1.66031V2.50031H2.49033H0.820312L0.825333 10.8353L0.830353 19.1703H10.0004H19.1704L19.1754 10.8353L19.1804 2.50031H17.5104H15.8404V1.66031V0.820312H15.0004H14.1604V1.66031V2.50031H10.0004H5.84035V1.66031V0.820312H5.00035H4.16035V1.66031ZM2.50035 5.00031V5.82031H10.0004H17.5004V5.00031V4.18031H10.0004H2.50035V5.00031ZM2.50035 12.5003V17.5003H10.0004H17.5004V12.5003V7.50031H10.0004H2.50035V12.5003ZM4.16035 10.8405V11.6806L5.41535 11.6755L6.67035 11.6703L6.67557 10.8353L6.68079 10.0003H5.42057H4.16035V10.8405ZM8.74513 10.8353L8.75035 11.6703H10.0004H11.2504L11.2556 10.8353L11.2608 10.0003H10.0004H8.73991L8.74513 10.8353ZM13.3251 10.8353L13.3304 11.6703L14.5854 11.6755L15.8404 11.6806V10.8405V10.0003H14.5801H13.3199L13.3251 10.8353ZM4.16035 14.1602V15.0003H5.42057H6.68079L6.67557 14.1653L6.67035 13.3303L5.41535 13.3252L4.16035 13.32V14.1602ZM8.75383 13.3335C8.74641 13.3409 8.74035 13.719 8.74035 14.1737V15.0003H10.0006H11.2608L11.2556 14.1653L11.2504 13.3303L10.0088 13.3252C9.32599 13.3223 8.76125 13.3261 8.75383 13.3335Z" fill="#2017CE"></path>
  </g>
  <defs>
    <clipPath id="clip0_529_24933">
      <rect width="20" height="20" fill="white"></rect>
    </clipPath>
  </defs>
</svg>
