<?xml version="1.0" encoding="UTF-8"?>
<svg xmlns="http://www.w3.org/2000/svg" width="20" height="20" viewBox="0 0 20 20" fill="none">
  <g id="Calendar-Mark--Streamline-Sharp" clip-path="url(#clip0_529_24530)">
    <g id="calendar-mark--calendar-date-day-month-mark">
      <g id="Rectangle 11">
        <path d="M1.66406 3.33203H18.3307V18.332H1.66406V3.33203Z" stroke="#010A1C" stroke-width="2"></path>
        <path d="M1.66406 3.33203H18.3307V18.332H1.66406V3.33203Z" stroke="black" stroke-opacity="0.2" stroke-width="2"></path>
      </g>
      <g id="Vector 38">
        <path d="M1.66406 6.66406H18.3307" stroke="#010A1C" stroke-width="2"></path>
        <path d="M1.66406 6.66406H18.3307" stroke="black" stroke-opacity="0.2" stroke-width="2"></path>
      </g>
      <g id="Vector 39">
        <path d="M5 0.832031V3.33203" stroke="#010A1C" stroke-width="2"></path>
        <path d="M5 0.832031V3.33203" stroke="black" stroke-opacity="0.2" stroke-width="2"></path>
      </g>
      <g id="Vector 40">
        <path d="M15 0.832031V3.33203" stroke="#010A1C" stroke-width="2"></path>
        <path d="M15 0.832031V3.33203" stroke="black" stroke-opacity="0.2" stroke-width="2"></path>
      </g>
      <g id="Vector 1456">
        <path d="M4.16406 10.832H6.66406" stroke="#010A1C" stroke-width="2"></path>
        <path d="M4.16406 10.832H6.66406" stroke="black" stroke-opacity="0.2" stroke-width="2"></path>
      </g>
      <g id="Vector 1457">
        <path d="M4.16406 14.1641H6.66406" stroke="#010A1C" stroke-width="2"></path>
        <path d="M4.16406 14.1641H6.66406" stroke="black" stroke-opacity="0.2" stroke-width="2"></path>
      </g>
      <g id="Vector 1458">
        <path d="M8.75 10.832H11.25" stroke="#010A1C" stroke-width="2"></path>
        <path d="M8.75 10.832H11.25" stroke="black" stroke-opacity="0.2" stroke-width="2"></path>
      </g>
      <g id="Vector 1460">
        <path d="M13.3281 10.832H15.8281" stroke="#010A1C" stroke-width="2"></path>
        <path d="M13.3281 10.832H15.8281" stroke="black" stroke-opacity="0.2" stroke-width="2"></path>
      </g>
      <g id="Vector 1459">
        <path d="M8.75 14.1641H11.25" stroke="#010A1C" stroke-width="2"></path>
        <path d="M8.75 14.1641H11.25" stroke="black" stroke-opacity="0.2" stroke-width="2"></path>
      </g>
    </g>
  </g>
  <defs>
    <clipPath id="clip0_529_24530">
      <rect width="20" height="20" fill="white"></rect>
    </clipPath>
  </defs>
</svg>
