<?xml version="1.0" encoding="UTF-8"?>
<svg xmlns="http://www.w3.org/2000/svg" width="20" height="20" viewBox="0 0 20 20" fill="none">
  <g id="Frame" clip-path="url(#clip0_529_24937)">
    <path id="Vector" fill-rule="evenodd" clip-rule="evenodd" d="M9.19612 0.0315832C8.59918 0.0816632 8.08758 0.167243 7.5285 0.310563C5.12878 0.925683 3.0563 2.393 1.68514 4.44768C-0.964916 8.41876 -0.444476 13.696 2.92998 17.0704C3.73804 17.8785 4.6241 18.5069 5.66506 19.0101C8.8229 20.5365 12.5733 20.2849 15.5 18.3502C17.5938 16.966 19.0782 14.8809 19.6921 12.4617C19.8403 11.8777 19.9414 11.2539 19.972 10.7348C19.9797 10.6052 19.9936 10.4944 20.0029 10.4886C20.0123 10.4828 20.02 10.2531 20.02 9.9781C20.02 9.7031 20.0123 9.48286 20.0029 9.48866C19.9935 9.49448 19.9795 9.39376 19.9719 9.26484C19.8757 7.63426 19.274 5.88504 18.3148 4.44768C16.9541 2.4087 14.8926 0.941283 12.52 0.322703C11.4571 0.0456232 10.2691 -0.0584368 9.19612 0.0315832ZM9.62996 1.68198C7.75504 1.76176 5.94742 2.4848 4.52996 3.72194C4.2998 3.92284 3.86336 4.36134 3.67552 4.58046C2.59716 5.8383 1.90892 7.4236 1.71942 9.08608C1.68422 9.39496 1.66788 9.96824 1.68314 10.3598C1.72664 11.477 1.9951 12.5578 2.48286 13.5793C2.90386 14.4611 3.38014 15.14 4.06704 15.8374C5.03542 16.8208 6.13114 17.4972 7.45338 17.9279C8.37762 18.229 9.31424 18.3549 10.35 18.3174C12.2182 18.2497 14.0455 17.5222 15.47 16.279C15.7001 16.0781 16.1366 15.6396 16.3244 15.4205C17.4051 14.1599 18.0863 12.5895 18.2807 10.9105C18.335 10.4418 18.335 9.55908 18.2807 9.09046C18.0863 7.41142 17.4051 5.84102 16.3244 4.58046C16.0029 4.2054 15.4889 3.71796 15.0738 3.39448C13.7962 2.39892 12.0424 1.74938 10.4716 1.69008C10.3167 1.68422 10.1405 1.67676 10.08 1.67348C10.0195 1.6702 9.81696 1.67402 9.62996 1.68198ZM9.15996 7.50046V10.8405H11.66H14.16V10.0005V9.16046H12.5H10.84V6.66046V4.16046H9.99996H9.15996V7.50046ZM0.00866396 10.0005C0.00866396 10.281 0.011464 10.3957 0.014904 10.2555C0.018344 10.1152 0.018344 9.8857 0.014904 9.74546C0.011464 9.60522 0.00866396 9.71996 0.00866396 10.0005Z" fill="#2017CE"></path>
  </g>
  <defs>
    <clipPath id="clip0_529_24937">
      <rect width="20" height="20" fill="white"></rect>
    </clipPath>
  </defs>
</svg>
