<?xml version="1.0" encoding="UTF-8"?>
<svg xmlns="http://www.w3.org/2000/svg" width="3450" height="345" viewBox="0 0 3450 345" fill="none">
  <g clip-path="url(#clip0_3210_276672)">
    <path d="M135.262 206.358L135.168 201.676C133.467 161.747 111.705 123.621 74.3375 102.65C74.118 102.524 73.2653 102.061 73.0585 101.956C35.4517 81.4452 -8.38507 83.2689 -43.0802 103.078L-105 140.379L-60.0626 214.975L37.3963 156.265C41.7334 153.653 47.2591 156.728 47.3501 161.786L49.5011 275.626L136.5 274.05L135.225 206.438L135.262 206.358Z" fill="#020F30"></path>
    <path d="M417.648 241.032L416.607 236.466C406.848 197.711 377.809 164.787 336.967 151.826C336.726 151.747 335.797 151.467 335.573 151.406C294.59 138.944 252.033 149.616 222.073 176.046L169 225.124L228.125 289.063L311.66 211.817C315.378 208.379 321.412 210.271 322.526 215.205L347.708 326.246L432.582 307.068L417.628 241.118L417.648 241.032Z" fill="#020F30"></path>
    <path d="M160.451 549.515L164.759 547.679C201.163 531.186 228.4 496.758 233.895 454.262C233.93 454.012 234.041 453.048 234.062 452.817C239.041 410.271 220.975 370.288 189.64 345.503L131.91 301.998L79.4983 371.546L170.362 440.022C174.406 443.069 173.617 449.343 168.96 451.317L64.1623 495.834L98.1202 575.948L160.362 549.51L160.451 549.515Z" fill="#020F30"></path>
    <path d="M581.433 412.774L585.028 409.774C615.131 383.486 631.286 342.667 624.295 300.391C624.256 300.141 624.084 299.186 624.037 298.959C616.537 256.784 587.711 223.708 550.56 209.011L482.739 183.998L452.605 265.705L559.354 305.073C564.104 306.825 565.158 313.061 561.267 316.293L473.756 389.136L529.371 456.056L581.347 412.795L581.433 412.774Z" fill="#020F30"></path>
    <path d="M726.478 344.654L730.549 346.969C765.724 365.941 809.616 366.755 846.755 345.382C846.976 345.258 847.81 344.762 848.006 344.638C884.873 322.825 905.739 284.23 906.474 244.284L906.114 171.998L819.029 172.432L819.596 286.207C819.622 291.271 814.152 294.444 809.76 291.934L710.854 235.526L667.687 311.077L726.429 344.581L726.478 344.654Z" fill="#020F30"></path>
    <path d="M1089.41 220.986L1084.79 220.181C1045.28 214.189 1003.69 228.232 975.935 260.882C975.769 261.073 975.152 261.821 975.009 262.004C947.664 294.977 941.043 338.35 953.828 376.201L978.556 444.127L1060.39 414.336L1021.47 307.424C1019.74 302.666 1023.81 297.833 1028.79 298.714L1140.93 318.444L1156.08 232.759L1089.48 221.039L1089.41 220.986Z" fill="#020F30"></path>
    <path d="M1149.59 172.589L1150.68 177.143C1160.87 215.79 1190.26 248.393 1231.25 260.905C1231.49 260.982 1232.42 261.252 1232.64 261.311C1273.76 273.323 1316.2 262.186 1345.87 235.428L1398.4 185.772L1338.58 122.485L1255.89 200.641C1252.22 204.12 1246.16 202.294 1244.99 197.373L1218.6 86.614L1133.94 106.72L1149.61 172.503L1149.59 172.589Z" fill="#020F30"></path>
    <path d="M1326.27 320.387L1322.08 318.289C1285.96 301.184 1242.09 302.669 1206.12 325.956C1205.9 326.092 1205.1 326.63 1204.91 326.764C1169.23 350.478 1150.41 390.112 1151.77 430.041L1155.91 502.209L1242.86 497.218L1236.34 383.628C1236.05 378.573 1241.34 375.118 1245.86 377.394L1347.58 428.548L1386.73 350.841L1326.32 320.458L1326.27 320.387Z" fill="#020F30"></path>
    <path d="M1586.17 134.289L1581.98 132.191C1545.86 115.086 1501.99 116.571 1466.02 139.859C1465.8 139.994 1465 140.533 1464.81 140.667C1429.13 164.38 1410.32 204.015 1411.67 243.944L1415.82 316.112L1502.76 311.12L1496.24 197.53C1495.95 192.475 1501.24 189.02 1505.76 191.297L1607.48 242.45L1646.64 164.743L1586.22 134.36L1586.17 134.289Z" fill="#020F30"></path>
    <path d="M1888.64 192.102L1888.78 187.421C1889.09 147.457 1869.27 108.286 1833.01 85.4635C1832.79 85.3264 1831.97 84.8214 1831.76 84.7059C1795.24 62.3312 1751.36 61.9497 1715.72 79.9903L1652 114.132L1693.13 190.893L1793.42 137.155C1797.88 134.763 1803.24 138.113 1803.08 143.168L1799.51 256.973L1886.48 259.771L1888.6 192.18L1888.64 192.102Z" fill="#020F30"></path>
    <path d="M1654.99 364.395L1656.3 368.893C1668.29 407.016 1699.19 438.198 1740.72 448.766C1740.96 448.831 1741.91 449.057 1742.13 449.105C1783.77 459.167 1825.64 446.043 1854.01 417.918L1904.15 365.842L1841.41 305.443L1762.5 387.408C1758.99 391.056 1752.85 389.518 1751.45 384.657L1719.87 275.265L1636.25 299.337L1655.01 364.308L1654.99 364.395Z" fill="#020F30"></path>
    <path d="M2179.97 255.204L2178.81 250.666C2168.08 212.17 2138.22 179.991 2097.06 168.066C2096.82 167.993 2095.88 167.736 2095.66 167.681C2054.37 156.258 2012.1 168.002 1982.82 195.181L1931 245.584L1991.72 308.008L2073.28 228.676C2076.91 225.146 2082.99 226.885 2084.23 231.789L2112.21 342.158L2196.57 320.842L2179.95 255.291L2179.97 255.204Z" fill="#020F30"></path>
    <path d="M2353.49 411.459L2357.01 408.377C2386.51 381.406 2401.72 340.228 2393.76 298.124C2393.72 297.874 2393.53 296.924 2393.47 296.698C2385.01 254.706 2355.44 222.298 2317.96 208.455L2249.58 185.001L2221.33 267.376L2328.95 304.291C2333.74 305.934 2334.93 312.144 2331.12 315.464L2245.3 390.291L2302.43 455.921L2353.4 411.481L2353.49 411.459Z" fill="#020F30"></path>
    <path d="M2492.42 352.789L2496.56 354.985C2532.27 372.93 2576.17 372.471 2612.67 350.031C2612.89 349.9 2613.71 349.381 2613.9 349.251C2650.12 326.378 2669.86 287.194 2669.43 247.245L2666.98 174.999L2579.94 177.957L2583.81 291.668C2583.98 296.729 2578.6 300.059 2574.14 297.678L2473.64 244.16L2432.68 320.93L2492.37 352.717L2492.42 352.789Z" fill="#020F30"></path>
    <path d="M2849.94 232.184L2845.36 231.213C2806.09 223.799 2764.02 236.333 2735.11 267.96C2734.94 268.145 2734.29 268.871 2734.14 269.048C2705.63 301.013 2697.44 344.118 2708.86 382.406L2731.12 451.18L2813.97 424.361L2778.93 316.114C2777.37 311.297 2781.62 306.614 2786.57 307.674L2897.92 331.437L2916.15 246.354L2850.01 232.239L2849.94 232.184Z" fill="#020F30"></path>
    <path d="M2908.86 182.033L2910.14 186.536C2921.96 224.716 2952.71 256.042 2994.19 266.806C2994.43 266.872 2995.37 267.102 2995.6 267.151C3037.19 277.408 3079.12 264.481 3107.62 236.489L3158 184.649L3095.55 123.957L3016.25 205.55C3012.73 209.181 3006.6 207.614 3005.22 202.747L2974.15 93.2078L2890.42 116.887L2908.87 181.946L2908.86 182.033Z" fill="#020F30"></path>
    <path d="M3335.27 139.13L3330.99 137.242C3294.06 121.958 3250.31 125.626 3215.55 150.676C3215.34 150.821 3214.56 151.4 3214.38 151.543C3179.93 177.004 3163.11 217.526 3166.45 257.338L3174.19 329.21L3260.77 319.895L3248.6 206.771C3248.06 201.737 3253.18 198.022 3257.8 200.07L3361.95 246.095L3397.18 166.534L3335.33 139.198L3335.27 139.13Z" fill="#020F30"></path>
    <path d="M3090.48 318.664L3086.44 316.298C3051.5 296.889 3007.62 295.528 2970.22 316.435C2970 316.557 2969.16 317.042 2968.96 317.163C2931.82 338.515 2910.48 376.847 2909.24 416.78L2908.7 489.065L2995.79 489.718L2996.64 375.944C2996.68 370.881 3002.19 367.776 3006.55 370.341L3104.74 427.978L3148.85 352.972L3090.53 318.738L3090.48 318.664Z" fill="#020F30"></path>
    <path d="M3335.32 316.191L3331.46 318.842C3299.03 342.197 3279.12 381.325 3282.13 424.07C3282.14 424.322 3282.22 425.289 3282.25 425.52C3285.77 468.211 3311.37 503.84 3346.99 521.949L3412.17 553.199L3449.82 474.671L3347.22 425.485C3342.66 423.297 3342.19 416.99 3346.37 414.135L3440.31 349.802L3391.2 277.971L3335.41 316.178L3335.32 316.191Z" fill="#020F30"></path>
  </g>
  <defs>
    <clipPath id="clip0_3210_276672">
      <rect width="3450" height="345" fill="white"></rect>
    </clipPath>
  </defs>
</svg>
