<?xml version="1.0" encoding="UTF-8"?>
<svg xmlns="http://www.w3.org/2000/svg" width="41" height="40" viewBox="0 0 41 40" fill="none">
  <path d="M36.3877 34.115L28.5642 26.2931C30.8318 23.5708 31.9625 20.0791 31.7212 16.5443C31.4798 13.0095 29.885 9.70384 27.2685 7.31496C24.652 4.92608 21.2152 3.6379 17.6731 3.7184C14.1311 3.7989 10.7564 5.24188 8.25107 7.74716C5.74579 10.2524 4.30281 13.6271 4.22231 17.1692C4.14181 20.7113 5.42999 24.1481 7.81887 26.7646C10.2077 29.3811 13.5134 30.9759 17.0482 31.2173C20.583 31.4586 24.0747 30.3279 26.797 28.0603L34.6189 35.8838C34.7351 35.9999 34.8729 36.092 35.0247 36.1549C35.1764 36.2177 35.339 36.2501 35.5033 36.2501C35.6675 36.2501 35.8302 36.2177 35.9819 36.1549C36.1337 36.092 36.2715 35.9999 36.3877 35.8838C36.5038 35.7676 36.5959 35.6297 36.6588 35.478C36.7216 35.3263 36.754 35.1636 36.754 34.9994C36.754 34.8351 36.7216 34.6725 36.6588 34.5208C36.5959 34.369 36.5038 34.2311 36.3877 34.115ZM6.75329 17.4994C6.75329 15.2743 7.41309 13.0993 8.64925 11.2492C9.88542 9.39916 11.6424 7.95722 13.6981 7.10574C15.7538 6.25425 18.0158 6.03146 20.1981 6.46555C22.3803 6.89963 24.3849 7.97109 25.9582 9.54443C27.5316 11.1178 28.603 13.1223 29.0371 15.3046C29.4712 17.4869 29.2484 19.7489 28.3969 21.8046C27.5455 23.8602 26.1035 25.6173 24.2535 26.8534C22.4034 28.0896 20.2283 28.7494 18.0033 28.7494C15.0206 28.7461 12.1611 27.5597 10.052 25.4507C7.94292 23.3416 6.75659 20.4821 6.75329 17.4994Z" fill="white"></path>
</svg>
