<?xml version="1.0" encoding="UTF-8"?>
<svg xmlns="http://www.w3.org/2000/svg" width="162" height="103" viewBox="0 0 162 103" fill="none">
  <path d="M59.0918 11.3813L59.0967 11.379C91.414 -3.98396 128.348 -1.32077 157.079 15.4571L160.399 17.5017L160.413 17.5107L208.088 46.8743L168.415 104.778L87.8396 55.1509C83.9254 52.7402 78.6898 55.2362 78.44 59.7009L78.44 59.7012L73.3926 150.65L0.659933 147.032L3.64742 93.2447L3.64748 93.2436L3.86786 89.4371C3.868 89.4353 3.86815 89.4336 3.86828 89.4318C6.43786 57.5377 25.8894 27.6527 57.9951 11.9078L57.9951 11.9079L58.0034 11.9036C58.1842 11.811 58.9112 11.4649 59.0918 11.3813Z" stroke="#2017CE"></path>
</svg>
