<?xml version="1.0" encoding="UTF-8"?>
<svg xmlns="http://www.w3.org/2000/svg" width="64" height="64" viewBox="0 0 64 64" fill="none">
  <g id="Frame">
    <path id="Vector" fill-rule="evenodd" clip-rule="evenodd" d="M20.8636 12.7553L7.32764 18.4029L7.31145 28.3606L7.29526 38.3182L4.86505 40.9671L2.43478 43.616L2.43324 46.0491L2.43164 48.4823L6.18351 52.5771C8.247 54.8293 9.95618 56.6801 9.98159 56.69C10.0071 56.7 11.7171 54.8655 13.7817 52.6134L17.5356 48.5186V46.0569V43.5953L15.106 40.9496L12.6764 38.304L12.674 32.08C12.6727 28.6568 12.6887 25.856 12.7095 25.856C12.7303 25.856 13.7239 26.2628 14.9175 26.7601L17.0876 27.6641V29.4694C17.0876 30.4625 17.1068 33.3953 17.1301 35.987L17.1726 40.6991L25.8147 45.1938L34.4567 49.6886L34.8122 49.4965C35.0077 49.3908 38.9045 47.3641 43.4716 44.9926L51.7756 40.6809V34.1775V27.674L56.6716 25.6347L61.5676 23.5954L61.5666 20.9977L61.5657 18.4L48.0556 12.768C40.625 9.67039 34.5127 7.12959 34.4725 7.12184C34.4325 7.11404 28.3084 9.64914 20.8636 12.7553ZM24.8316 16.8995C19.6044 19.0792 15.2566 20.8939 15.1698 20.9321C15.0293 20.9942 16.0812 21.4474 24.7282 25.0503L34.4445 29.0987L44.1319 25.0624C49.46 22.8424 53.7987 21.0057 53.7735 20.9807C53.6978 20.9058 34.5151 12.9276 34.4218 12.9323C34.3744 12.9346 30.0588 14.7199 24.8316 16.8995ZM22.4636 33.676V37.4148L28.4544 40.5323L34.4451 43.6498L40.4543 40.5289L46.4634 37.408L46.4635 33.68C46.4636 31.0192 46.4435 29.952 46.3935 29.952C46.3549 29.952 43.6571 31.0628 40.3984 32.4206C37.1397 33.7783 34.4281 34.8765 34.3726 34.8611C34.3171 34.8457 31.6652 33.7454 28.4796 32.416C25.294 31.0866 22.6372 29.985 22.5756 29.968C22.4699 29.9388 22.4636 30.146 22.4636 33.676ZM8.89564 44.4919L7.83964 45.6511L7.8239 46.0415L7.80815 46.432L8.86607 47.584C9.4479 48.2176 9.94857 48.7445 9.97865 48.7549C10.0087 48.7654 10.5261 48.2378 11.1285 47.5825L12.2236 46.3912V46.0566V45.722L11.1288 44.525C10.5266 43.8666 10.0154 43.329 9.99279 43.3303C9.97014 43.3316 9.47644 43.8543 8.89564 44.4919Z" fill="#2017CE"></path>
  </g>
</svg>
